<svg width="184" height="30" viewBox="0 0 184 30" fill="none" xmlns="http://www.w3.org/2000/svg">
<path d="M24.23 3.6C24.85 3.72 25.31 3.93 25.61 4.23C25.93 4.53 26.09 4.88 26.09 5.28C26.09 5.94 25.9 6.42 25.52 6.72C25.16 7.02 24.58 7.14 23.78 7.08C21.98 6.94 20.57 6.85 19.55 6.81C18.55 6.75 17.23 6.71 15.59 6.69C14.85 10.37 14.17 14.07 13.55 17.79C13.33 19.15 13.1 20.73 12.86 22.53C12.62 24.31 12.46 25.75 12.38 26.85C12.34 27.43 12.1 27.88 11.66 28.2C11.22 28.5 10.69 28.65 10.07 28.65C9.41 28.65 8.9 28.49 8.54 28.17C8.18 27.85 8 27.43 8 26.91C8 26.43 8.07 25.64 8.21 24.54C8.37 23.42 8.55 22.25 8.75 21.03C8.97 19.81 9.14 18.75 9.26 17.85C9.48 16.33 9.73 14.82 10.01 13.32C10.29 11.82 10.57 10.4 10.85 9.06C10.91 8.76 10.98 8.42 11.06 8.04C11.14 7.64 11.23 7.2 11.33 6.72C9.37 6.78 7.83 6.94 6.71 7.2C5.59 7.46 4.79 7.83 4.31 8.31C3.85 8.77 3.62 9.37 3.62 10.11C3.62 10.79 3.82 11.44 4.22 12.06C4.3 12.2 4.34 12.35 4.34 12.51C4.34 12.89 4.11 13.25 3.65 13.59C3.21 13.91 2.75 14.07 2.27 14.07C1.93 14.07 1.65 13.97 1.43 13.77C1.03 13.43 0.7 12.95 0.44 12.33C0.18 11.69 0.05 10.97 0.05 10.17C0.05 8.47 0.6 7.11 1.7 6.09C2.82 5.05 4.51 4.29 6.77 3.81C9.05 3.33 11.97 3.09 15.53 3.09C17.73 3.09 19.48 3.13 20.78 3.21C22.1 3.29 23.25 3.42 24.23 3.6ZM38.008 21.81C38.268 21.81 38.468 21.93 38.608 22.17C38.768 22.41 38.848 22.74 38.848 23.16C38.848 23.96 38.658 24.58 38.278 25.02C37.358 26.08 36.408 26.95 35.428 27.63C34.468 28.31 33.368 28.65 32.128 28.65C31.108 28.65 30.338 28.36 29.818 27.78C29.298 27.18 29.038 26.32 29.038 25.2C29.038 24.64 29.178 23.64 29.458 22.2C29.718 20.94 29.848 20.07 29.848 19.59C29.848 19.27 29.738 19.11 29.518 19.11C29.258 19.11 28.888 19.45 28.408 20.13C27.928 20.79 27.448 21.67 26.968 22.77C26.488 23.87 26.098 25.03 25.798 26.25C25.418 27.85 24.478 28.65 22.978 28.65C22.378 28.65 21.978 28.44 21.778 28.02C21.598 27.58 21.508 26.8 21.508 25.68C21.508 25.04 21.518 24.53 21.538 24.15L21.568 21.75C21.568 18.67 21.878 15.46 22.498 12.12C23.138 8.78 24.068 5.98 25.288 3.72C26.528 1.44 28.008 0.299998 29.728 0.299998C30.648 0.299998 31.388 0.699998 31.948 1.5C32.528 2.28 32.818 3.3 32.818 4.56C32.818 6.58 32.228 8.68 31.048 10.86C29.868 13.02 27.948 15.55 25.288 18.45C25.228 19.49 25.198 20.56 25.198 21.66C25.858 19.96 26.588 18.58 27.388 17.52C28.208 16.44 29.008 15.67 29.788 15.21C30.588 14.75 31.318 14.52 31.978 14.52C33.278 14.52 33.928 15.17 33.928 16.47C33.928 17.25 33.708 18.66 33.268 20.7C32.888 22.44 32.698 23.59 32.698 24.15C32.698 24.95 32.988 25.35 33.568 25.35C33.968 25.35 34.438 25.11 34.978 24.63C35.538 24.13 36.278 23.33 37.198 22.23C37.438 21.95 37.708 21.81 38.008 21.81ZM29.098 3.27C28.738 3.27 28.338 3.79 27.898 4.83C27.458 5.85 27.028 7.24 26.608 9C26.208 10.74 25.878 12.64 25.618 14.7C26.858 13.24 27.878 11.65 28.678 9.93C29.498 8.21 29.908 6.65 29.908 5.25C29.908 4.61 29.838 4.12 29.698 3.78C29.558 3.44 29.358 3.27 29.098 3.27ZM49.7966 21.81C50.0566 21.81 50.2566 21.93 50.3966 22.17C50.5566 22.41 50.6366 22.74 50.6366 23.16C50.6366 23.96 50.4466 24.58 50.0666 25.02C49.3266 25.92 48.2766 26.75 46.9166 27.51C45.5766 28.27 44.1366 28.65 42.5966 28.65C40.4966 28.65 38.8666 28.08 37.7066 26.94C36.5466 25.8 35.9666 24.24 35.9666 22.26C35.9666 20.88 36.2566 19.6 36.8366 18.42C37.4166 17.22 38.2166 16.27 39.2366 15.57C40.2766 14.87 41.4466 14.52 42.7466 14.52C43.9066 14.52 44.8366 14.87 45.5366 15.57C46.2366 16.25 46.5866 17.18 46.5866 18.36C46.5866 19.74 46.0866 20.93 45.0866 21.93C44.1066 22.91 42.4366 23.69 40.0766 24.27C40.5766 25.19 41.5266 25.65 42.9266 25.65C43.8266 25.65 44.8466 25.34 45.9866 24.72C47.1466 24.08 48.1466 23.25 48.9866 22.23C49.2266 21.95 49.4966 21.81 49.7966 21.81ZM42.2366 17.46C41.4966 17.46 40.8666 17.89 40.3466 18.75C39.8466 19.61 39.5966 20.65 39.5966 21.87V21.93C40.7766 21.65 41.7066 21.23 42.3866 20.67C43.0666 20.11 43.4066 19.46 43.4066 18.72C43.4066 18.34 43.2966 18.04 43.0766 17.82C42.8766 17.58 42.5966 17.46 42.2366 17.46ZM63.4939 19.29C63.7539 19.29 63.9539 19.42 64.0939 19.68C64.2339 19.94 64.3039 20.27 64.3039 20.67C64.3039 21.63 64.0139 22.2 63.4339 22.38C62.2339 22.8 60.9139 23.04 59.4739 23.1C59.0939 24.78 58.3439 26.13 57.2239 27.15C56.1039 28.15 54.8339 28.65 53.4139 28.65C52.2139 28.65 51.1839 28.36 50.3239 27.78C49.4839 27.2 48.8439 26.43 48.4039 25.47C47.9639 24.51 47.7439 23.47 47.7439 22.35C47.7439 20.83 48.0339 19.48 48.6139 18.3C49.1939 17.1 49.9939 16.17 51.0139 15.51C52.0339 14.83 53.1639 14.49 54.4039 14.49C55.9239 14.49 57.1439 15.02 58.0639 16.08C59.0039 17.12 59.5539 18.41 59.7139 19.95C60.6539 19.89 61.7739 19.69 63.0739 19.35C63.2339 19.31 63.3739 19.29 63.4939 19.29ZM53.6539 25.47C54.2939 25.47 54.8439 25.21 55.3039 24.69C55.7839 24.17 56.1039 23.42 56.2639 22.44C55.6439 22.02 55.1639 21.47 54.8239 20.79C54.5039 20.11 54.3439 19.39 54.3439 18.63C54.3439 18.31 54.3739 17.99 54.4339 17.67H54.2839C53.4839 17.67 52.8139 18.06 52.2739 18.84C51.7539 19.6 51.4939 20.68 51.4939 22.08C51.4939 23.18 51.7039 24.02 52.1239 24.6C52.5639 25.18 53.0739 25.47 53.6539 25.47ZM75.1091 3.24C75.6291 3.24 76.0691 3.37 76.4291 3.63C76.7891 3.87 76.9691 4.17 76.9691 4.53C76.9691 5.17 76.7691 5.69 76.3691 6.09C75.9691 6.47 75.3991 6.66 74.6591 6.66C73.4991 6.66 72.6191 6.67 72.0191 6.69C71.9791 6.93 71.7991 8.01 71.4791 9.93C71.1191 12.07 70.8991 13.38 70.8191 13.86L70.1891 17.79C69.7491 20.73 69.3991 23.19 69.1391 25.17C69.5591 25.15 70.1291 25.14 70.8491 25.14C71.9091 25.14 72.6291 25.28 73.0091 25.56C73.3891 25.84 73.5791 26.26 73.5791 26.82C73.5791 27.34 73.3691 27.78 72.9491 28.14C72.5491 28.5 71.9791 28.68 71.2391 28.68C70.7391 28.68 69.9491 28.66 68.8691 28.62C67.8691 28.58 67.2091 28.56 66.8891 28.56C65.6291 28.56 64.2491 28.67 62.7491 28.89C62.0891 28.99 61.6191 29.04 61.3391 29.04C60.8991 29.04 60.5291 28.92 60.2291 28.68C59.9291 28.44 59.7791 28.09 59.7791 27.63C59.7791 26.91 60.0991 26.35 60.7391 25.95C61.3791 25.55 62.2791 25.34 63.4391 25.32L64.8491 25.29L64.9391 24.63C65.4191 21.43 65.7691 19.17 65.9891 17.85L66.6491 13.92C67.0491 11.6 67.4091 9.21 67.7291 6.75L65.2091 6.78C64.4891 6.78 63.9891 6.67 63.7091 6.45C63.4491 6.21 63.3191 5.88 63.3191 5.46C63.3191 4.1 64.2991 3.37 66.2591 3.27C67.1791 3.23 68.2991 3.21 69.6191 3.21L75.1091 3.24ZM78.7126 28.65C77.9526 28.65 77.4126 28.25 77.0926 27.45C76.7926 26.65 76.6426 25.37 76.6426 23.61C76.6426 21.01 77.0126 18.54 77.7526 16.2C77.9326 15.62 78.2226 15.2 78.6226 14.94C79.0426 14.66 79.6226 14.52 80.3626 14.52C80.7626 14.52 81.0426 14.57 81.2026 14.67C81.3626 14.77 81.4426 14.96 81.4426 15.24C81.4426 15.56 81.2926 16.28 80.9926 17.4C80.7926 18.2 80.6326 18.9 80.5126 19.5C80.3926 20.1 80.2926 20.84 80.2126 21.72C80.8726 20 81.6126 18.6 82.4326 17.52C83.2526 16.44 84.0526 15.67 84.8326 15.21C85.6326 14.75 86.3626 14.52 87.0226 14.52C88.3226 14.52 88.9726 15.17 88.9726 16.47C88.9726 17.25 88.7526 18.66 88.3126 20.7C87.9326 22.44 87.7426 23.59 87.7426 24.15C87.7426 24.95 88.0326 25.35 88.6126 25.35C89.0126 25.35 89.4826 25.11 90.0226 24.63C90.5826 24.13 91.3226 23.33 92.2426 22.23C92.4826 21.95 92.7526 21.81 93.0526 21.81C93.3126 21.81 93.5126 21.93 93.6526 22.17C93.8126 22.41 93.8926 22.74 93.8926 23.16C93.8926 23.96 93.7026 24.58 93.3226 25.02C92.4626 26.08 91.5326 26.95 90.5326 27.63C89.5526 28.31 88.4326 28.65 87.1726 28.65C86.1526 28.65 85.3826 28.36 84.8626 27.78C84.3426 27.18 84.0826 26.32 84.0826 25.2C84.0826 24.64 84.2226 23.64 84.5026 22.2C84.7626 20.94 84.8926 20.07 84.8926 19.59C84.8926 19.27 84.7826 19.11 84.5626 19.11C84.3026 19.11 83.9326 19.45 83.4526 20.13C82.9926 20.79 82.5126 21.67 82.0126 22.77C81.5326 23.87 81.1426 25.03 80.8426 26.25C80.6226 27.19 80.3626 27.83 80.0626 28.17C79.7826 28.49 79.3326 28.65 78.7126 28.65ZM97.0454 29.31C96.0054 29.31 95.2054 29.07 94.6454 28.59C94.1054 28.11 93.8354 27.57 93.8354 26.97C93.8354 26.45 94.0254 26 94.4054 25.62C94.7854 25.24 95.3454 25.05 96.0854 25.05C96.3454 25.05 96.6454 25.08 96.9854 25.14C97.3454 25.18 97.6154 25.21 97.7954 25.23C97.7754 24.71 97.6554 24.22 97.4354 23.76C97.2354 23.3 96.9754 22.86 96.6554 22.44C96.3354 22 96.0354 21.62 95.7554 21.3C95.1354 22.48 94.5154 23.46 93.8954 24.24C93.2954 25.02 92.6354 25.76 91.9154 26.46C91.5554 26.82 91.1754 27 90.7754 27C90.4554 27 90.1954 26.89 89.9954 26.67C89.7954 26.43 89.6954 26.14 89.6954 25.8C89.6954 25.4 89.8354 25.03 90.1154 24.69L90.5054 24.21C91.6054 22.85 92.4354 21.73 92.9954 20.85C93.3354 20.27 93.7354 19.5 94.1954 18.54C94.6554 17.56 95.1054 16.55 95.5454 15.51C95.9254 14.63 96.7154 14.19 97.9154 14.19C98.4754 14.19 98.8654 14.24 99.0854 14.34C99.3054 14.44 99.4154 14.6 99.4154 14.82C99.4154 14.94 99.3754 15.13 99.2954 15.39C99.2154 15.65 99.1054 15.91 98.9654 16.17C98.6054 16.89 98.4254 17.5 98.4254 18C98.4254 18.3 98.5254 18.63 98.7254 18.99C98.9454 19.35 99.2754 19.8 99.7154 20.34C100.355 21.18 100.835 21.9 101.155 22.5C101.495 23.08 101.665 23.72 101.665 24.42C101.665 24.62 101.645 24.9 101.605 25.26C102.585 24.88 103.735 23.87 105.055 22.23C105.295 21.95 105.565 21.81 105.865 21.81C106.125 21.81 106.325 21.93 106.465 22.17C106.625 22.41 106.705 22.74 106.705 23.16C106.705 23.92 106.515 24.54 106.135 25.02C105.135 26.26 104.175 27.11 103.255 27.57C102.355 28.01 101.235 28.25 99.8954 28.29C99.0954 28.97 98.1454 29.31 97.0454 29.31ZM107.328 28.65C106.428 28.65 105.688 28.24 105.108 27.42C104.548 26.58 104.268 25.54 104.268 24.3C104.268 22.8 104.368 21.43 104.568 20.19C104.768 18.93 105.098 17.6 105.558 16.2C105.758 15.6 106.038 15.17 106.398 14.91C106.758 14.65 107.328 14.52 108.108 14.52C108.548 14.52 108.848 14.59 109.008 14.73C109.188 14.87 109.278 15.08 109.278 15.36C109.278 15.52 109.168 16.06 108.948 16.98C108.748 17.72 108.588 18.39 108.468 18.99C108.068 21.09 107.868 22.49 107.868 23.19C107.868 23.61 107.918 23.91 108.018 24.09C108.118 24.25 108.278 24.33 108.498 24.33C108.798 24.33 109.168 24.03 109.608 23.43C110.068 22.83 110.548 21.92 111.048 20.7C111.568 19.48 112.068 17.98 112.548 16.2C112.708 15.6 112.948 15.17 113.268 14.91C113.608 14.65 114.108 14.52 114.768 14.52C115.228 14.52 115.548 14.58 115.728 14.7C115.908 14.8 115.998 15 115.998 15.3C115.998 15.8 115.748 17.17 115.248 19.41C114.688 21.97 114.408 23.55 114.408 24.15C114.408 24.53 114.488 24.83 114.648 25.05C114.808 25.25 115.018 25.35 115.278 25.35C115.678 25.35 116.148 25.11 116.688 24.63C117.248 24.13 117.988 23.33 118.908 22.23C119.148 21.95 119.418 21.81 119.718 21.81C119.978 21.81 120.178 21.93 120.318 22.17C120.478 22.41 120.558 22.74 120.558 23.16C120.558 23.96 120.368 24.58 119.988 25.02C119.128 26.08 118.198 26.95 117.198 27.63C116.218 28.31 115.098 28.65 113.838 28.65C112.878 28.65 112.168 28.28 111.708 27.54C111.268 26.8 111.048 25.76 111.048 24.42C110.708 25.78 110.198 26.83 109.518 27.57C108.838 28.29 108.108 28.65 107.328 28.65ZM120.256 28.65C119.496 28.65 118.956 28.25 118.636 27.45C118.336 26.65 118.186 25.37 118.186 23.61C118.186 21.01 118.556 18.54 119.296 16.2C119.476 15.62 119.766 15.2 120.166 14.94C120.586 14.66 121.166 14.52 121.906 14.52C122.306 14.52 122.586 14.57 122.746 14.67C122.906 14.77 122.986 14.96 122.986 15.24C122.986 15.56 122.836 16.28 122.536 17.4C122.336 18.2 122.176 18.9 122.056 19.5C121.936 20.1 121.836 20.84 121.756 21.72C122.416 20 123.156 18.6 123.976 17.52C124.796 16.44 125.596 15.67 126.376 15.21C127.176 14.75 127.906 14.52 128.566 14.52C129.866 14.52 130.516 15.17 130.516 16.47C130.516 16.73 130.426 17.36 130.246 18.36C130.086 19.16 130.006 19.66 130.006 19.86C130.006 20.56 130.256 20.91 130.756 20.91C131.316 20.91 132.036 20.47 132.916 19.59C133.176 19.33 133.446 19.2 133.726 19.2C133.986 19.2 134.186 19.32 134.326 19.56C134.486 19.78 134.566 20.08 134.566 20.46C134.566 21.2 134.366 21.78 133.966 22.2C133.406 22.78 132.746 23.28 131.986 23.7C131.246 24.1 130.456 24.3 129.616 24.3C128.556 24.3 127.746 24.03 127.186 23.49C126.646 22.95 126.376 22.22 126.376 21.3C126.376 21 126.406 20.7 126.466 20.4C126.506 20 126.526 19.73 126.526 19.59C126.526 19.27 126.416 19.11 126.196 19.11C125.896 19.11 125.496 19.45 124.996 20.13C124.516 20.79 124.036 21.67 123.556 22.77C123.076 23.87 122.686 25.03 122.386 26.25C122.166 27.19 121.906 27.83 121.606 28.17C121.326 28.49 120.876 28.65 120.256 28.65ZM135.468 28.65C134.228 28.65 133.238 28.2 132.498 27.3C131.758 26.4 131.388 25.22 131.388 23.76C131.388 22.16 131.758 20.65 132.498 19.23C133.238 17.79 134.218 16.64 135.438 15.78C136.678 14.9 137.988 14.46 139.368 14.46C139.808 14.46 140.098 14.55 140.238 14.73C140.398 14.89 140.528 15.19 140.628 15.63C141.048 15.55 141.488 15.51 141.948 15.51C142.928 15.51 143.418 15.86 143.418 16.56C143.418 16.98 143.268 17.98 142.968 19.56C142.508 21.86 142.278 23.46 142.278 24.36C142.278 24.66 142.348 24.9 142.488 25.08C142.648 25.26 142.848 25.35 143.088 25.35C143.468 25.35 143.928 25.11 144.468 24.63C145.008 24.13 145.738 23.33 146.658 22.23C146.898 21.95 147.168 21.81 147.468 21.81C147.728 21.81 147.928 21.93 148.068 22.17C148.228 22.41 148.308 22.74 148.308 23.16C148.308 23.96 148.118 24.58 147.738 25.02C146.918 26.04 146.048 26.9 145.128 27.6C144.208 28.3 143.318 28.65 142.458 28.65C141.798 28.65 141.188 28.43 140.628 27.99C140.088 27.53 139.678 26.91 139.398 26.13C138.358 27.81 137.048 28.65 135.468 28.65ZM136.548 25.62C136.988 25.62 137.408 25.36 137.808 24.84C138.208 24.32 138.498 23.63 138.678 22.77L139.788 17.25C138.948 17.27 138.168 17.59 137.448 18.21C136.748 18.81 136.188 19.61 135.768 20.61C135.348 21.61 135.138 22.67 135.138 23.79C135.138 24.41 135.258 24.87 135.498 25.17C135.758 25.47 136.108 25.62 136.548 25.62ZM148 28.65C147.24 28.65 146.7 28.25 146.38 27.45C146.08 26.65 145.93 25.37 145.93 23.61C145.93 21.01 146.3 18.54 147.04 16.2C147.22 15.62 147.51 15.2 147.91 14.94C148.33 14.66 148.91 14.52 149.65 14.52C150.05 14.52 150.33 14.57 150.49 14.67C150.65 14.77 150.73 14.96 150.73 15.24C150.73 15.56 150.58 16.28 150.28 17.4C150.08 18.2 149.92 18.9 149.8 19.5C149.68 20.1 149.58 20.84 149.5 21.72C150.16 20 150.9 18.6 151.72 17.52C152.54 16.44 153.34 15.67 154.12 15.21C154.92 14.75 155.65 14.52 156.31 14.52C157.61 14.52 158.26 15.17 158.26 16.47C158.26 17.25 158.04 18.66 157.6 20.7C157.22 22.44 157.03 23.59 157.03 24.15C157.03 24.95 157.32 25.35 157.9 25.35C158.3 25.35 158.77 25.11 159.31 24.63C159.87 24.13 160.61 23.33 161.53 22.23C161.77 21.95 162.04 21.81 162.34 21.81C162.6 21.81 162.8 21.93 162.94 22.17C163.1 22.41 163.18 22.74 163.18 23.16C163.18 23.96 162.99 24.58 162.61 25.02C161.75 26.08 160.82 26.95 159.82 27.63C158.84 28.31 157.72 28.65 156.46 28.65C155.44 28.65 154.67 28.36 154.15 27.78C153.63 27.18 153.37 26.32 153.37 25.2C153.37 24.64 153.51 23.64 153.79 22.2C154.05 20.94 154.18 20.07 154.18 19.59C154.18 19.27 154.07 19.11 153.85 19.11C153.59 19.11 153.22 19.45 152.74 20.13C152.28 20.79 151.8 21.67 151.3 22.77C150.82 23.87 150.43 25.03 150.13 26.25C149.91 27.19 149.65 27.83 149.35 28.17C149.07 28.49 148.62 28.65 148 28.65ZM166.483 28.65C164.523 28.65 162.993 28.1 161.893 27C160.813 25.88 160.273 24.41 160.273 22.59C160.273 20.97 160.593 19.55 161.233 18.33C161.873 17.11 162.703 16.17 163.722 15.51C164.743 14.85 165.813 14.52 166.933 14.52C168.033 14.52 168.883 14.85 169.483 15.51C170.103 16.15 170.413 16.98 170.413 18C170.413 18.84 170.223 19.55 169.843 20.13C169.483 20.71 169.003 21 168.403 21C168.023 21 167.713 20.91 167.473 20.73C167.253 20.55 167.143 20.3 167.143 19.98C167.143 19.84 167.163 19.68 167.203 19.5C167.243 19.32 167.273 19.19 167.293 19.11C167.393 18.81 167.443 18.53 167.443 18.27C167.443 18.01 167.373 17.81 167.232 17.67C167.113 17.53 166.933 17.46 166.693 17.46C166.233 17.46 165.803 17.67 165.403 18.09C165.003 18.49 164.683 19.04 164.443 19.74C164.203 20.44 164.083 21.21 164.083 22.05C164.083 24.37 165.093 25.53 167.113 25.53C167.933 25.53 168.813 25.26 169.753 24.72C170.713 24.16 171.653 23.33 172.573 22.23C172.813 21.95 173.083 21.81 173.383 21.81C173.643 21.81 173.843 21.93 173.983 22.17C174.143 22.41 174.223 22.74 174.223 23.16C174.223 23.92 174.033 24.54 173.653 25.02C172.713 26.18 171.583 27.08 170.263 27.72C168.963 28.34 167.703 28.65 166.483 28.65ZM182.537 22.71C182.797 22.71 182.997 22.83 183.137 23.07C183.297 23.31 183.377 23.64 183.377 24.06C183.377 24.78 183.207 25.4 182.867 25.92C182.307 26.78 181.567 27.45 180.647 27.93C179.747 28.41 178.667 28.65 177.407 28.65C175.487 28.65 173.997 28.08 172.937 26.94C171.877 25.78 171.347 24.22 171.347 22.26C171.347 20.88 171.637 19.6 172.217 18.42C172.797 17.22 173.597 16.27 174.617 15.57C175.657 14.87 176.827 14.52 178.127 14.52C179.287 14.52 180.217 14.87 180.917 15.57C181.617 16.25 181.967 17.18 181.967 18.36C181.967 19.74 181.467 20.93 180.467 21.93C179.487 22.91 177.807 23.69 175.427 24.27C175.907 25.19 176.717 25.65 177.857 25.65C178.677 25.65 179.347 25.46 179.867 25.08C180.407 24.7 181.027 24.06 181.727 23.16C181.967 22.86 182.237 22.71 182.537 22.71ZM177.617 17.46C176.877 17.46 176.247 17.89 175.727 18.75C175.227 19.61 174.977 20.65 174.977 21.87V21.93C176.157 21.65 177.087 21.23 177.767 20.67C178.447 20.11 178.787 19.46 178.787 18.72C178.787 18.34 178.677 18.04 178.457 17.82C178.257 17.58 177.977 17.46 177.617 17.46Z" fill="#009A56"/>
</svg>
