<svg width="154" height="24" viewBox="0 0 154 24" fill="none" xmlns="http://www.w3.org/2000/svg">
<path d="M20.184 3.08C20.68 3.176 21.048 3.344 21.288 3.584C21.544 3.824 21.672 4.104 21.672 4.424C21.672 4.952 21.52 5.336 21.216 5.576C20.928 5.816 20.464 5.912 19.824 5.864C18.384 5.752 17.256 5.68 16.44 5.648C15.64 5.6 14.584 5.568 13.272 5.552C12.68 8.496 12.136 11.456 11.64 14.432C11.464 15.52 11.28 16.784 11.088 18.224C10.896 19.648 10.768 20.8 10.704 21.68C10.672 22.144 10.48 22.504 10.128 22.76C9.776 23 9.352 23.12 8.856 23.12C8.328 23.12 7.92 22.992 7.632 22.736C7.344 22.48 7.2 22.144 7.2 21.728C7.2 21.344 7.256 20.712 7.368 19.832C7.496 18.936 7.64 18 7.8 17.024C7.976 16.048 8.112 15.2 8.208 14.48C8.384 13.264 8.584 12.056 8.808 10.856C9.032 9.656 9.256 8.52 9.48 7.448C9.528 7.208 9.584 6.936 9.648 6.632C9.712 6.312 9.784 5.96 9.864 5.576C8.296 5.624 7.064 5.752 6.168 5.96C5.272 6.168 4.632 6.464 4.248 6.848C3.88 7.216 3.696 7.696 3.696 8.288C3.696 8.832 3.856 9.352 4.176 9.848C4.24 9.96 4.272 10.08 4.272 10.208C4.272 10.512 4.088 10.8 3.72 11.072C3.368 11.328 3 11.456 2.616 11.456C2.344 11.456 2.12 11.376 1.944 11.216C1.624 10.944 1.36 10.56 1.152 10.064C0.944 9.552 0.84 8.976 0.84 8.336C0.84 6.976 1.28 5.888 2.16 5.072C3.056 4.24 4.408 3.632 6.216 3.248C8.04 2.864 10.376 2.672 13.224 2.672C14.984 2.672 16.384 2.704 17.424 2.768C18.48 2.832 19.4 2.936 20.184 3.08ZM31.2064 17.648C31.4144 17.648 31.5744 17.744 31.6864 17.936C31.8144 18.128 31.8784 18.392 31.8784 18.728C31.8784 19.368 31.7264 19.864 31.4224 20.216C30.6864 21.064 29.9264 21.76 29.1424 22.304C28.3744 22.848 27.4944 23.12 26.5024 23.12C25.6864 23.12 25.0704 22.888 24.6544 22.424C24.2384 21.944 24.0304 21.256 24.0304 20.36C24.0304 19.912 24.1424 19.112 24.3664 17.96C24.5744 16.952 24.6784 16.256 24.6784 15.872C24.6784 15.616 24.5904 15.488 24.4144 15.488C24.2064 15.488 23.9104 15.76 23.5264 16.304C23.1424 16.832 22.7584 17.536 22.3744 18.416C21.9904 19.296 21.6784 20.224 21.4384 21.2C21.1344 22.48 20.3824 23.12 19.1824 23.12C18.7024 23.12 18.3824 22.952 18.2224 22.616C18.0784 22.264 18.0064 21.64 18.0064 20.744C18.0064 20.232 18.0144 19.824 18.0304 19.52L18.0544 17.6C18.0544 15.136 18.3024 12.568 18.7984 9.896C19.3104 7.224 20.0544 4.984 21.0304 3.176C22.0224 1.352 23.2064 0.439999 24.5824 0.439999C25.3184 0.439999 25.9104 0.759999 26.3584 1.4C26.8224 2.024 27.0544 2.84 27.0544 3.848C27.0544 5.464 26.5824 7.144 25.6384 8.888C24.6944 10.616 23.1584 12.64 21.0304 14.96C20.9824 15.792 20.9584 16.648 20.9584 17.528C21.4864 16.168 22.0704 15.064 22.7104 14.216C23.3664 13.352 24.0064 12.736 24.6304 12.368C25.2704 12 25.8544 11.816 26.3824 11.816C27.4224 11.816 27.9424 12.336 27.9424 13.376C27.9424 14 27.7664 15.128 27.4144 16.76C27.1104 18.152 26.9584 19.072 26.9584 19.52C26.9584 20.16 27.1904 20.48 27.6544 20.48C27.9744 20.48 28.3504 20.288 28.7824 19.904C29.2304 19.504 29.8224 18.864 30.5584 17.984C30.7504 17.76 30.9664 17.648 31.2064 17.648ZM24.0784 2.816C23.7904 2.816 23.4704 3.232 23.1184 4.064C22.7664 4.88 22.4224 5.992 22.0864 7.4C21.7664 8.792 21.5024 10.312 21.2944 11.96C22.2864 10.792 23.1024 9.52 23.7424 8.144C24.3984 6.768 24.7264 5.52 24.7264 4.4C24.7264 3.888 24.6704 3.496 24.5584 3.224C24.4464 2.952 24.2864 2.816 24.0784 2.816ZM40.6373 17.648C40.8453 17.648 41.0053 17.744 41.1172 17.936C41.2453 18.128 41.3093 18.392 41.3093 18.728C41.3093 19.368 41.1573 19.864 40.8533 20.216C40.2613 20.936 39.4213 21.6 38.3333 22.208C37.2613 22.816 36.1093 23.12 34.8773 23.12C33.1973 23.12 31.8933 22.664 30.9653 21.752C30.0373 20.84 29.5732 19.592 29.5732 18.008C29.5732 16.904 29.8053 15.88 30.2693 14.936C30.7333 13.976 31.3733 13.216 32.1893 12.656C33.0213 12.096 33.9573 11.816 34.9973 11.816C35.9253 11.816 36.6693 12.096 37.2293 12.656C37.7893 13.2 38.0693 13.944 38.0693 14.888C38.0693 15.992 37.6693 16.944 36.8693 17.744C36.0853 18.528 34.7493 19.152 32.8613 19.616C33.2613 20.352 34.0213 20.72 35.1413 20.72C35.8613 20.72 36.6773 20.472 37.5893 19.976C38.5173 19.464 39.3173 18.8 39.9893 17.984C40.1813 17.76 40.3973 17.648 40.6373 17.648ZM34.5893 14.168C33.9973 14.168 33.4933 14.512 33.0773 15.2C32.6773 15.888 32.4773 16.72 32.4773 17.696V17.744C33.4213 17.52 34.1653 17.184 34.7093 16.736C35.2533 16.288 35.5253 15.768 35.5253 15.176C35.5253 14.872 35.4373 14.632 35.2613 14.456C35.1013 14.264 34.8773 14.168 34.5893 14.168ZM43.4111 23.12C42.4671 23.12 41.6591 22.888 40.9871 22.424C40.3311 21.944 39.8351 21.32 39.4991 20.552C39.1631 19.784 38.9951 18.96 38.9951 18.08C38.9951 16.864 39.2191 15.784 39.6671 14.84C40.1311 13.88 40.7551 13.136 41.5391 12.608C42.3231 12.064 43.2031 11.792 44.1791 11.792C45.1231 11.792 45.9311 12.032 46.6031 12.512C47.2751 12.976 47.7791 13.592 48.1151 14.36C48.4511 15.128 48.6191 15.952 48.6191 16.832C48.6191 18.048 48.3871 19.136 47.9231 20.096C47.4591 21.04 46.8271 21.784 46.0271 22.328C45.2431 22.856 44.3711 23.12 43.4111 23.12ZM43.6751 20.528C44.2191 20.528 44.6751 20.232 45.0431 19.64C45.4271 19.048 45.6191 18.184 45.6191 17.048C45.6191 16.168 45.4591 15.504 45.1391 15.056C44.8191 14.608 44.4351 14.384 43.9871 14.384C43.4111 14.384 42.9311 14.68 42.5471 15.272C42.1791 15.848 41.9951 16.712 41.9951 17.864C41.9951 18.776 42.1551 19.448 42.4751 19.88C42.7951 20.312 43.1951 20.528 43.6751 20.528ZM67.2857 2.792C67.7017 2.792 68.0537 2.896 68.3417 3.104C68.6297 3.296 68.7737 3.536 68.7737 3.824C68.7737 4.336 68.6137 4.752 68.2937 5.072C67.9737 5.376 67.5177 5.528 66.9257 5.528C65.9977 5.528 65.2937 5.536 64.8137 5.552C64.7817 5.744 64.6377 6.608 64.3817 8.144C64.0937 9.856 63.9177 10.904 63.8537 11.288L63.3497 14.432C62.9977 16.784 62.7177 18.752 62.5097 20.336C62.8457 20.32 63.3017 20.312 63.8777 20.312C64.7257 20.312 65.3017 20.424 65.6057 20.648C65.9097 20.872 66.0617 21.208 66.0617 21.656C66.0617 22.072 65.8937 22.424 65.5577 22.712C65.2377 23 64.7817 23.144 64.1897 23.144C63.7897 23.144 63.1577 23.128 62.2937 23.096C61.4937 23.064 60.9657 23.048 60.7097 23.048C59.7017 23.048 58.5977 23.136 57.3977 23.312C56.8697 23.392 56.4937 23.432 56.2697 23.432C55.9177 23.432 55.6217 23.336 55.3817 23.144C55.1417 22.952 55.0217 22.672 55.0217 22.304C55.0217 21.728 55.2777 21.28 55.7897 20.96C56.3017 20.64 57.0217 20.472 57.9497 20.456L59.0777 20.432L59.1497 19.904C59.5337 17.344 59.8137 15.536 59.9897 14.48L60.5177 11.336C60.8377 9.48 61.1257 7.568 61.3817 5.6L59.3657 5.624C58.7897 5.624 58.3897 5.536 58.1657 5.36C57.9577 5.168 57.8537 4.904 57.8537 4.568C57.8537 3.48 58.6377 2.896 60.2057 2.816C60.9417 2.784 61.8377 2.768 62.8937 2.768L67.2857 2.792ZM70.1685 23.12C69.5605 23.12 69.1285 22.8 68.8725 22.16C68.6325 21.52 68.5125 20.496 68.5125 19.088C68.5125 17.008 68.8085 15.032 69.4005 13.16C69.5445 12.696 69.7765 12.36 70.0965 12.152C70.4325 11.928 70.8965 11.816 71.4885 11.816C71.8085 11.816 72.0325 11.856 72.1605 11.936C72.2885 12.016 72.3525 12.168 72.3525 12.392C72.3525 12.648 72.2325 13.224 71.9925 14.12C71.8325 14.76 71.7045 15.32 71.6085 15.8C71.5125 16.28 71.4325 16.872 71.3685 17.576C71.8965 16.2 72.4885 15.08 73.1445 14.216C73.8005 13.352 74.4405 12.736 75.0645 12.368C75.7045 12 76.2885 11.816 76.8165 11.816C77.8565 11.816 78.3765 12.336 78.3765 13.376C78.3765 14 78.2005 15.128 77.8485 16.76C77.5445 18.152 77.3925 19.072 77.3925 19.52C77.3925 20.16 77.6245 20.48 78.0885 20.48C78.4085 20.48 78.7845 20.288 79.2165 19.904C79.6645 19.504 80.2565 18.864 80.9925 17.984C81.1845 17.76 81.4005 17.648 81.6405 17.648C81.8485 17.648 82.0085 17.744 82.1205 17.936C82.2485 18.128 82.3125 18.392 82.3125 18.728C82.3125 19.368 82.1605 19.864 81.8565 20.216C81.1685 21.064 80.4245 21.76 79.6245 22.304C78.8405 22.848 77.9445 23.12 76.9365 23.12C76.1205 23.12 75.5045 22.888 75.0885 22.424C74.6725 21.944 74.4645 21.256 74.4645 20.36C74.4645 19.912 74.5765 19.112 74.8005 17.96C75.0085 16.952 75.1125 16.256 75.1125 15.872C75.1125 15.616 75.0245 15.488 74.8485 15.488C74.6405 15.488 74.3445 15.76 73.9605 16.304C73.5925 16.832 73.2085 17.536 72.8085 18.416C72.4245 19.296 72.1125 20.224 71.8725 21.2C71.6965 21.952 71.4885 22.464 71.2485 22.736C71.0245 22.992 70.6645 23.12 70.1685 23.12ZM84.8348 23.648C84.0028 23.648 83.3628 23.456 82.9148 23.072C82.4828 22.688 82.2668 22.256 82.2668 21.776C82.2668 21.36 82.4188 21 82.7228 20.696C83.0268 20.392 83.4748 20.24 84.0668 20.24C84.2748 20.24 84.5148 20.264 84.7868 20.312C85.0748 20.344 85.2908 20.368 85.4348 20.384C85.4188 19.968 85.3228 19.576 85.1468 19.208C84.9868 18.84 84.7788 18.488 84.5228 18.152C84.2668 17.8 84.0268 17.496 83.8028 17.24C83.3068 18.184 82.8108 18.968 82.3148 19.592C81.8348 20.216 81.3068 20.808 80.7308 21.368C80.4428 21.656 80.1388 21.8 79.8188 21.8C79.5628 21.8 79.3548 21.712 79.1947 21.536C79.0347 21.344 78.9547 21.112 78.9547 20.84C78.9547 20.52 79.0667 20.224 79.2908 19.952L79.6028 19.568C80.4828 18.48 81.1468 17.584 81.5948 16.88C81.8668 16.416 82.1868 15.8 82.5548 15.032C82.9228 14.248 83.2828 13.44 83.6348 12.608C83.9388 11.904 84.5708 11.552 85.5308 11.552C85.9788 11.552 86.2908 11.592 86.4668 11.672C86.6428 11.752 86.7308 11.88 86.7308 12.056C86.7308 12.152 86.6988 12.304 86.6348 12.512C86.5708 12.72 86.4828 12.928 86.3708 13.136C86.0828 13.712 85.9388 14.2 85.9388 14.6C85.9388 14.84 86.0188 15.104 86.1788 15.392C86.3548 15.68 86.6188 16.04 86.9708 16.472C87.4828 17.144 87.8668 17.72 88.1228 18.2C88.3948 18.664 88.5308 19.176 88.5308 19.736C88.5308 19.896 88.5148 20.12 88.4828 20.408C89.2668 20.104 90.1868 19.296 91.2428 17.984C91.4348 17.76 91.6508 17.648 91.8907 17.648C92.0988 17.648 92.2588 17.744 92.3708 17.936C92.4988 18.128 92.5628 18.392 92.5628 18.728C92.5628 19.336 92.4108 19.832 92.1068 20.216C91.3068 21.208 90.5388 21.888 89.8028 22.256C89.0828 22.608 88.1868 22.8 87.1148 22.832C86.4748 23.376 85.7148 23.648 84.8348 23.648ZM93.0609 23.12C92.3409 23.12 91.7489 22.792 91.2849 22.136C90.8369 21.464 90.6129 20.632 90.6129 19.64C90.6129 18.44 90.6929 17.344 90.8529 16.352C91.0129 15.344 91.2769 14.28 91.6449 13.16C91.8049 12.68 92.0289 12.336 92.3169 12.128C92.6049 11.92 93.0609 11.816 93.6849 11.816C94.0369 11.816 94.2769 11.872 94.4049 11.984C94.5489 12.096 94.6209 12.264 94.6209 12.488C94.6209 12.616 94.5329 13.048 94.3569 13.784C94.1969 14.376 94.0689 14.912 93.9729 15.392C93.6529 17.072 93.4929 18.192 93.4929 18.752C93.4929 19.088 93.5329 19.328 93.6129 19.472C93.6929 19.6 93.8209 19.664 93.9969 19.664C94.2369 19.664 94.5329 19.424 94.8849 18.944C95.2529 18.464 95.6369 17.736 96.0369 16.76C96.4529 15.784 96.8529 14.584 97.2369 13.16C97.3649 12.68 97.5569 12.336 97.8129 12.128C98.0849 11.92 98.4849 11.816 99.0129 11.816C99.3809 11.816 99.6369 11.864 99.7809 11.96C99.9249 12.04 99.9969 12.2 99.9969 12.44C99.9969 12.84 99.7969 13.936 99.3969 15.728C98.9489 17.776 98.7249 19.04 98.7249 19.52C98.7249 19.824 98.7889 20.064 98.9169 20.24C99.0449 20.4 99.2129 20.48 99.4209 20.48C99.7409 20.48 100.117 20.288 100.549 19.904C100.997 19.504 101.589 18.864 102.325 17.984C102.517 17.76 102.733 17.648 102.973 17.648C103.181 17.648 103.341 17.744 103.453 17.936C103.581 18.128 103.645 18.392 103.645 18.728C103.645 19.368 103.493 19.864 103.189 20.216C102.501 21.064 101.757 21.76 100.957 22.304C100.173 22.848 99.2769 23.12 98.2689 23.12C97.5009 23.12 96.9329 22.824 96.5649 22.232C96.2129 21.64 96.0369 20.808 96.0369 19.736C95.7649 20.824 95.3569 21.664 94.8129 22.256C94.2689 22.832 93.6849 23.12 93.0609 23.12ZM103.403 23.12C102.795 23.12 102.363 22.8 102.107 22.16C101.867 21.52 101.747 20.496 101.747 19.088C101.747 17.008 102.043 15.032 102.635 13.16C102.779 12.696 103.011 12.36 103.331 12.152C103.667 11.928 104.131 11.816 104.723 11.816C105.043 11.816 105.267 11.856 105.395 11.936C105.523 12.016 105.587 12.168 105.587 12.392C105.587 12.648 105.467 13.224 105.227 14.12C105.067 14.76 104.939 15.32 104.843 15.8C104.747 16.28 104.667 16.872 104.603 17.576C105.131 16.2 105.723 15.08 106.379 14.216C107.035 13.352 107.675 12.736 108.299 12.368C108.939 12 109.523 11.816 110.051 11.816C111.091 11.816 111.611 12.336 111.611 13.376C111.611 13.584 111.539 14.088 111.395 14.888C111.267 15.528 111.203 15.928 111.203 16.088C111.203 16.648 111.403 16.928 111.803 16.928C112.251 16.928 112.827 16.576 113.531 15.872C113.739 15.664 113.955 15.56 114.179 15.56C114.387 15.56 114.547 15.656 114.659 15.848C114.787 16.024 114.851 16.264 114.851 16.568C114.851 17.16 114.691 17.624 114.371 17.96C113.923 18.424 113.395 18.824 112.787 19.16C112.195 19.48 111.563 19.64 110.891 19.64C110.043 19.64 109.395 19.424 108.947 18.992C108.515 18.56 108.299 17.976 108.299 17.24C108.299 17 108.323 16.76 108.371 16.52C108.403 16.2 108.419 15.984 108.419 15.872C108.419 15.616 108.331 15.488 108.155 15.488C107.915 15.488 107.595 15.76 107.195 16.304C106.811 16.832 106.427 17.536 106.043 18.416C105.659 19.296 105.347 20.224 105.107 21.2C104.931 21.952 104.723 22.464 104.483 22.736C104.259 22.992 103.899 23.12 103.403 23.12ZM115.573 23.12C114.581 23.12 113.789 22.76 113.197 22.04C112.605 21.32 112.309 20.376 112.309 19.208C112.309 17.928 112.605 16.72 113.197 15.584C113.789 14.432 114.573 13.512 115.549 12.824C116.541 12.12 117.589 11.768 118.693 11.768C119.045 11.768 119.277 11.84 119.389 11.984C119.517 12.112 119.621 12.352 119.701 12.704C120.037 12.64 120.389 12.608 120.757 12.608C121.541 12.608 121.933 12.888 121.933 13.448C121.933 13.784 121.813 14.584 121.573 15.848C121.205 17.688 121.021 18.968 121.021 19.688C121.021 19.928 121.077 20.12 121.189 20.264C121.317 20.408 121.477 20.48 121.669 20.48C121.973 20.48 122.341 20.288 122.773 19.904C123.205 19.504 123.789 18.864 124.525 17.984C124.717 17.76 124.933 17.648 125.173 17.648C125.381 17.648 125.541 17.744 125.653 17.936C125.781 18.128 125.845 18.392 125.845 18.728C125.845 19.368 125.693 19.864 125.389 20.216C124.733 21.032 124.037 21.72 123.301 22.28C122.565 22.84 121.853 23.12 121.165 23.12C120.637 23.12 120.149 22.944 119.701 22.592C119.269 22.224 118.941 21.728 118.717 21.104C117.885 22.448 116.837 23.12 115.573 23.12ZM116.437 20.696C116.789 20.696 117.125 20.488 117.445 20.072C117.765 19.656 117.997 19.104 118.141 18.416L119.029 14C118.357 14.016 117.733 14.272 117.157 14.768C116.597 15.248 116.149 15.888 115.813 16.688C115.477 17.488 115.309 18.336 115.309 19.232C115.309 19.728 115.405 20.096 115.597 20.336C115.805 20.576 116.085 20.696 116.437 20.696ZM125.598 23.12C124.99 23.12 124.558 22.8 124.302 22.16C124.062 21.52 123.942 20.496 123.942 19.088C123.942 17.008 124.238 15.032 124.83 13.16C124.974 12.696 125.206 12.36 125.526 12.152C125.862 11.928 126.326 11.816 126.918 11.816C127.238 11.816 127.462 11.856 127.59 11.936C127.718 12.016 127.782 12.168 127.782 12.392C127.782 12.648 127.662 13.224 127.422 14.12C127.262 14.76 127.134 15.32 127.038 15.8C126.942 16.28 126.862 16.872 126.798 17.576C127.326 16.2 127.918 15.08 128.574 14.216C129.23 13.352 129.87 12.736 130.494 12.368C131.134 12 131.718 11.816 132.246 11.816C133.286 11.816 133.806 12.336 133.806 13.376C133.806 14 133.63 15.128 133.278 16.76C132.974 18.152 132.822 19.072 132.822 19.52C132.822 20.16 133.054 20.48 133.518 20.48C133.838 20.48 134.214 20.288 134.646 19.904C135.094 19.504 135.686 18.864 136.422 17.984C136.614 17.76 136.83 17.648 137.07 17.648C137.278 17.648 137.438 17.744 137.55 17.936C137.678 18.128 137.742 18.392 137.742 18.728C137.742 19.368 137.59 19.864 137.286 20.216C136.598 21.064 135.854 21.76 135.054 22.304C134.27 22.848 133.374 23.12 132.366 23.12C131.55 23.12 130.934 22.888 130.518 22.424C130.102 21.944 129.894 21.256 129.894 20.36C129.894 19.912 130.006 19.112 130.23 17.96C130.438 16.952 130.542 16.256 130.542 15.872C130.542 15.616 130.454 15.488 130.278 15.488C130.07 15.488 129.774 15.76 129.39 16.304C129.022 16.832 128.638 17.536 128.238 18.416C127.854 19.296 127.542 20.224 127.302 21.2C127.126 21.952 126.918 22.464 126.678 22.736C126.454 22.992 126.094 23.12 125.598 23.12ZM140.384 23.12C138.816 23.12 137.592 22.68 136.712 21.8C135.848 20.904 135.416 19.728 135.416 18.272C135.416 16.976 135.672 15.84 136.184 14.864C136.696 13.888 137.36 13.136 138.176 12.608C138.992 12.08 139.848 11.816 140.744 11.816C141.624 11.816 142.304 12.08 142.784 12.608C143.28 13.12 143.528 13.784 143.528 14.6C143.528 15.272 143.376 15.84 143.072 16.304C142.784 16.768 142.4 17 141.92 17C141.616 17 141.368 16.928 141.176 16.784C141 16.64 140.912 16.44 140.912 16.184C140.912 16.072 140.928 15.944 140.96 15.8C140.992 15.656 141.016 15.552 141.032 15.488C141.112 15.248 141.152 15.024 141.152 14.816C141.152 14.608 141.096 14.448 140.984 14.336C140.888 14.224 140.744 14.168 140.552 14.168C140.184 14.168 139.84 14.336 139.52 14.672C139.2 14.992 138.944 15.432 138.752 15.992C138.56 16.552 138.464 17.168 138.464 17.84C138.464 19.696 139.272 20.624 140.888 20.624C141.544 20.624 142.248 20.408 143 19.976C143.768 19.528 144.52 18.864 145.256 17.984C145.448 17.76 145.664 17.648 145.904 17.648C146.112 17.648 146.272 17.744 146.384 17.936C146.512 18.128 146.576 18.392 146.576 18.728C146.576 19.336 146.424 19.832 146.12 20.216C145.368 21.144 144.464 21.864 143.408 22.376C142.368 22.872 141.36 23.12 140.384 23.12ZM153.228 18.368C153.436 18.368 153.596 18.464 153.708 18.656C153.836 18.848 153.9 19.112 153.9 19.448C153.9 20.024 153.764 20.52 153.492 20.936C153.044 21.624 152.452 22.16 151.716 22.544C150.996 22.928 150.132 23.12 149.124 23.12C147.588 23.12 146.396 22.664 145.548 21.752C144.7 20.824 144.276 19.576 144.276 18.008C144.276 16.904 144.508 15.88 144.972 14.936C145.436 13.976 146.076 13.216 146.892 12.656C147.724 12.096 148.66 11.816 149.7 11.816C150.628 11.816 151.372 12.096 151.932 12.656C152.492 13.2 152.772 13.944 152.772 14.888C152.772 15.992 152.372 16.944 151.572 17.744C150.788 18.528 149.444 19.152 147.54 19.616C147.924 20.352 148.572 20.72 149.484 20.72C150.14 20.72 150.676 20.568 151.092 20.264C151.524 19.96 152.02 19.448 152.58 18.728C152.772 18.488 152.988 18.368 153.228 18.368ZM149.292 14.168C148.7 14.168 148.196 14.512 147.78 15.2C147.38 15.888 147.18 16.72 147.18 17.696V17.744C148.124 17.52 148.868 17.184 149.412 16.736C149.956 16.288 150.228 15.768 150.228 15.176C150.228 14.872 150.14 14.632 149.964 14.456C149.804 14.264 149.58 14.168 149.292 14.168Z" fill="white"/>
</svg>
